# xmcd
#
# Track frame offsets: 
#        180
#        11706
#        24496
#        38520
#        50350
#        87876
#        102137
#        118386
#        132136
#        144269
#        166248
#        178004
#        206621
#        220398
#        241853
#        252395
#        277118
#        296309
#        310816
#
# Disc length: 4304 seconds
#
# Revision: 2
# Processed by: cddbd v1.5.2PL0 Copyright (c) Steve Scherf et al.
# Submitted via: ExactAudioCopy v1.0b3
#
DISCID=0b10ce13
DTITLE=Various Artist - Sax and Sex 9
DYEAR=1995
DGENRE=Instrumental
TTITLE0=Fausto Papetti - Love Theme From The Godfather
TTITLE1=Stuart McDonald - Moon River
TTITLE2=George Saxon - Morgana
TTITLE3=Fausto Papetti - Sleepy Lagoon
TTITLE4=Lou Donaldson - Sentimental Journey
TTITLE5=Stuart McDonald - I'm In The Mood For Love
TTITLE6=Fausto Papetti - As Times Goes By
TTITLE7=George Saxon - Take My Heart
TTITLE8=Stuart McDonald - Scarborough Fair
TTITLE9=The John Tesh Project - Tears in Heaven
TTITLE10=Fausto Papetti - Georgia On My Mind
TTITLE11=Georgio Parreira - Why Worry - Local Hero
TTITLE12=George Saxon - Disco Night
TTITLE13=Stuart McDonald - Summer (The First Time)
TTITLE14=Fausto Papetti - More
TTITLE15=The John Tesh Project - I'll Be Over You
TTITLE16=Stuart McDonald - The Nearness Of You
TTITLE17=Ben Webster - Star Dust
TTITLE18=Fausto Papetti - Accarezzame
EXTD=
EXTT0=
EXTT1=
EXTT2=
EXTT3=
EXTT4=
EXTT5=
EXTT6=
EXTT7=
EXTT8=
EXTT9=
EXTT10=
EXTT11=
EXTT12=
EXTT13=
EXTT14=
EXTT15=
EXTT16=
EXTT17=
EXTT18=
PLAYORDER=
